<svg version="1.1" viewBox="0.0 0.0 319.46194225721786 110.11811023622047" fill="none" stroke="none" stroke-linecap="square" stroke-miterlimit="10" xmlns:xlink="http://www.w3.org/1999/xlink" xmlns="http://www.w3.org/2000/svg"><clipPath id="p.0"><path d="m0 0l319.46194 0l0 110.11811l-319.46194 0l0 -110.11811z" clip-rule="nonzero"/></clipPath><g clip-path="url(#p.0)"><path fill="#000000" fill-opacity="0.0" d="m0 0l319.46194 0l0 110.11811l-319.46194 0z" fill-rule="evenodd"/><path fill="#000000" fill-opacity="0.0" d="m16.0 16.0l288.0 0l0 84.031494l-288.0 0z" fill-rule="evenodd"/><path fill="#cc0000" d="m42.0 55.778122l10.890625 0q2.671875 0 4.53125 -1.796875q1.875 -1.8125 1.875 -5.125q0 -2.46875 -1.953125 -4.4375q-1.953125 -1.96875 -4.453125 -1.96875l-16.09375 0l0 33.75l-1.875 0l0 -35.625l17.96875 0q3.28125 0 5.78125 2.53125q2.5 2.53125 2.5 5.75q0 3.984375 -2.421875 6.390625q-2.421875 2.40625 -5.859375 2.40625l-10.890625 0l0 -1.875zm0 3.75l10.890625 0q2.703125 0 5.0 -1.3125q2.3125 -1.3125 3.734375 -3.78125q1.421875 -2.484375 1.421875 -5.578125q0 -4.0 -3.0625 -7.078125q-3.0625 -3.078125 -7.09375 -3.078125l-19.84375 0l0 37.5l-1.875 0l0 -39.375l21.71875 0q3.140625 0 5.921875 1.671875q2.796875 1.671875 4.453125 4.453125q1.65625 2.78125 1.65625 5.90625q0 3.546875 -1.671875 6.453125q-1.671875 2.890625 -4.421875 4.5q-2.734375 1.59375 -5.9375 1.59375l-10.890625 0l0 -1.875zm0 3.75l10.890625 0q2.78125 0 5.328125 -1.09375q2.5625 -1.109375 4.4375 -3.0q1.890625 -1.890625 3.015625 -4.578125q1.125 -2.703125 1.125 -5.75q0 -3.640625 -1.90625 -6.859375q-1.90625 -3.21875 -5.125 -5.125q-3.203125 -1.921875 -6.875 -1.921875l-23.59375 0l0 41.25l-1.875 0l0 -43.125l25.46875 0q4.15625 0 7.796875 2.1875q3.65625 2.171875 5.8125 5.8125q2.171875 3.640625 2.171875 7.78125q0 3.703125 -1.28125 6.8125q-1.28125 3.109375 -3.4375 5.171875q-2.15625 2.046875 -5.03125 3.1875q-2.859375 1.125 -6.03125 1.125l-10.890625 0l0 -1.875zm-1.453125 12.921875l-1.875 0l0 -31.875l14.21875 0q1.84375 0 3.1875 1.359375q1.34375 1.359375 1.34375 3.171875q0 5.046875 -4.53125 5.046875l-10.890625 0l0 -1.875l10.890625 0q1.25 0 1.953125 -0.703125q0.703125 -0.703125 0.703125 -2.46875q0 -1.140625 -0.78125 -1.890625q-0.765625 -0.765625 -1.875 -0.765625l-12.34375 0l0 30.0zm43.485153 -37.5l1.875 0l0 37.5l-1.875 0l0 -37.5zm-3.75 0l1.875 0l0 37.5l-1.875 0l0 -37.5zm-3.75 0l1.875 0l0 37.5l-1.875 0l0 -37.5zm-3.75 0l1.875 0l0 37.5l-1.875 0l0 -37.5zm32.581573 19.84375l7.9375 0q2.34375 0 3.984375 -1.40625q1.640625 -1.40625 1.640625 -3.953125q0 -1.984375 -1.71875 -3.546875q-1.71875 -1.5625 -3.90625 -1.5625l-13.125 0l0 28.125l-1.875 0l0 -30.0l15.0 0q2.984375 0 5.234375 2.109375q2.265625 2.109375 2.265625 4.875q0 3.296875 -2.1875 5.265625q-2.1875 1.96875 -5.3125 1.96875l-7.9375 0l0 -1.875zm0 3.75l7.9375 0q3.84375 0 6.609375 -2.546875q2.765625 -2.5625 2.765625 -6.5625q0 -3.515625 -2.8125 -6.1875q-2.8125 -2.671875 -6.5625 -2.671875l-16.875 0l0 31.875l-1.875 0l0 -33.75l18.75 0q4.53125 0 7.890625 3.21875q3.359375 3.21875 3.359375 7.515625q0 4.6875 -3.328125 7.84375q-3.3125 3.140625 -7.921875 3.140625l-7.9375 0l0 -1.875zm0 3.75l7.9375 0q3.515625 0 6.515625 -1.65625q3.015625 -1.671875 4.8125 -4.640625q1.796875 -2.96875 1.796875 -6.5625q0 -3.3125 -1.796875 -6.21875q-1.78125 -2.921875 -4.8125 -4.65625q-3.03125 -1.734375 -6.515625 -1.734375l-20.625 0l0 35.625l-1.875 0l0 -37.5l22.5 0q2.96875 0 5.734375 1.171875q2.78125 1.171875 4.8125 3.140625q2.03125 1.96875 3.234375 4.640625q1.21875 2.65625 1.21875 5.53125q0 3.359375 -1.203125 6.171875q-1.203125 2.8125 -3.265625 4.671875q-2.046875 1.859375 -4.765625 2.875q-2.71875 1.015625 -5.765625 1.015625l-7.9375 0l0 -1.875zm-1.4375 10.15625l-1.875 0l0 -26.25l11.25 0q1.53125 0 2.640625 0.953125q1.109375 0.953125 1.109375 2.28125q0 3.484375 -3.75 3.484375l-7.9375 0l0 -1.875l7.9375 0q1.875 0 1.875 -1.609375q0 -0.578125 -0.546875 -0.96875q-0.546875 -0.390625 -1.328125 -0.390625l-9.375 0l0 24.375zm37.938644 0l-1.875 0l0 -37.5l1.875 0l0 37.5zm-3.75 0l-1.875 0l0 -37.5l1.875 0l0 37.5zm-3.75 0l-1.875 0l0 -37.5l1.875 0l0 37.5zm11.25 -9.375l17.9375 0l0 1.875l-17.9375 0l0 1.875l17.9375 0l0 1.875l-17.9375 0l0 1.875l17.9375 0l0 1.875l-19.8125 0l0 -37.5l19.8125 0l0 1.875l-17.9375 0l0 1.875l17.9375 0l0 1.875l-17.9375 0l0 1.875l17.9375 0l0 1.875l-17.9375 0l0 4.65625l16.890625 0l0 1.875l-16.890625 0l0 1.875l16.890625 0l0 1.875l-16.890625 0l0 1.875l16.890625 0l0 1.875l-16.890625 0l0 4.71875zm22.444443 -28.125l1.875 0l0 37.5l-1.875 0l0 -37.5zm11.25 0l1.875 0l0 28.125l13.828125 0l0 1.875l-13.828125 0l0 1.875l13.828125 0l0 1.875l-13.828125 0l0 1.875l13.828125 0l0 1.875l-15.703125 0l0 -37.5zm-3.75 0l1.875 0l0 37.5l-1.875 0l0 -37.5zm-3.75 0l1.875 0l0 37.5l-1.875 0l0 -37.5zm38.590714 0l1.875 0l0 37.5l-1.875 0l0 -37.5zm-3.75 0l1.875 0l0 37.5l-1.875 0l0 -37.5zm-3.75 0l1.875 0l0 37.5l-1.875 0l0 -37.5zm-3.75 0l1.875 0l0 37.5l-1.875 0l0 -37.5zm47.5972 22.375l-1.875 -3.421875l0 -18.953125l1.875 0l0 22.375zm3.75 6.484375l-1.875 -3.1875l0 -25.671875l1.875 0l0 28.859375zm-25.828125 -13.734375l1.875 3.421875l0 18.953125l-1.875 0l0 -22.375zm-3.75 -6.734375l1.875 3.4375l0 25.671875l-1.875 0l0 -29.109375zm0.65625 -8.390625l2.1875 0l21.703125 37.5l-2.1875 0l-21.703125 -37.5zm4.421875 0l2.21875 0l21.6875 37.5l-2.25 0l-21.65625 -37.5zm4.40625 0l2.1875 0l19.78125 34.25l0 -34.25l1.875 0l0 37.5l-2.21875 0l-21.625 -37.5zm-11.359375 3.234375l0 34.265625l-1.875 0l0 -37.5l2.234375 0l21.640625 37.5l-2.15625 0l-19.84375 -34.265625zm49.475067 34.265625l-1.875 0l0 -37.5l1.875 0l0 37.5zm-3.75 0l-1.875 0l0 -37.5l1.875 0l0 37.5zm-3.75 0l-1.875 0l0 -37.5l1.875 0l0 37.5zm11.25 -9.375l17.9375 0l0 1.875l-17.9375 0l0 1.875l17.9375 0l0 1.875l-17.9375 0l0 1.875l17.9375 0l0 1.875l-19.8125 0l0 -37.5l19.8125 0l0 1.875l-17.9375 0l0 1.875l17.9375 0l0 1.875l-17.9375 0l0 1.875l17.9375 0l0 1.875l-17.9375 0l0 4.65625l16.890625 0l0 1.875l-16.890625 0l0 1.875l16.890625 0l0 1.875l-16.890625 0l0 1.875l16.890625 0l0 1.875l-16.890625 0l0 4.71875z" fill-rule="nonzero"/></g></svg>